HIERARCHY
ROOT Hips
{
	OFFSET 0.000000 8.830580 0.000000
	CHANNELS 6 Xposition Yposition Zposition Zrotation Yrotation Xrotation 
	JOINT Spine
	{
		OFFSET 0.000000 0.010000 0.000000
		CHANNELS 3 Zrotation Yrotation Xrotation
		JOINT Spine1
		{
			OFFSET 0.000000 2.459130 0.000000
			CHANNELS 3 Zrotation Yrotation Xrotation
			JOINT Neck
			{
				OFFSET 0.000000 2.484630 0.000000
				CHANNELS 3 Zrotation Yrotation Xrotation
				JOINT Head_virtual
				{
					OFFSET 0.000000 0.000000 0.000000
					CHANNELS 3 Zrotation Yrotation Xrotation
					JOINT Head
					{
						OFFSET 0.000000 0.927525 0.000000
						CHANNELS 3 Zrotation Yrotation Xrotation
						End Site
						{
							OFFSET 0.000000 0.000000 0.000000
						}
					}
				}
				JOINT LeftUpArm_virtual
				{
					OFFSET 0.000000 0.000000 0.000000
					CHANNELS 3 Zrotation Yrotation Xrotation
					JOINT LeftUpArm
					{
						OFFSET 1.248820 0.000000 0.000000
						CHANNELS 3 Zrotation Yrotation Xrotation
						JOINT LeftForeArm
						{
							OFFSET 2.597580 0.000000 0.000000
							CHANNELS 3 Zrotation Yrotation Xrotation
							JOINT LeftHand
							{
								OFFSET 2.455420 0.000000 0.000000
								CHANNELS 3 Zrotation Yrotation Xrotation
								End Site
								{
									OFFSET 0.000000 0.000000 0.000000
								}
							}
						}
					}
				}
				JOINT RightUpArm_virtual
				{
					OFFSET -0.000000 -0.000000 -0.000000
					CHANNELS 3 Zrotation Yrotation Xrotation
					JOINT RightUpArm
					{
						OFFSET -1.248820 -0.000000 -0.000000
						CHANNELS 3 Zrotation Yrotation Xrotation
						JOINT RightForeArm
						{
							OFFSET -2.597580 -0.000000 -0.000000
							CHANNELS 3 Zrotation Yrotation Xrotation
							JOINT RightHand
							{
								OFFSET -2.455420 -0.000000 -0.000000
								CHANNELS 3 Zrotation Yrotation Xrotation
								End Site
								{
									OFFSET 0.000000 0.000000 0.000000
								}
							}
						}
					}
				}
			}
		}
	}
	JOINT LeftUpLeg
	{
		OFFSET 1.271939 0.000000 0.000000
		CHANNELS 3 Zrotation Yrotation Xrotation
		JOINT LeftLowLeg
		{
			OFFSET 0.000000 -4.342910 0.000000
			CHANNELS 3 Zrotation Yrotation Xrotation
			JOINT LeftFoot
			{
				OFFSET 0.000000 -4.487670 0.000000
				CHANNELS 3 Zrotation Yrotation Xrotation
				JOINT LeftToeBase
				{
					OFFSET 0.000000 0.000000 1.515070
					CHANNELS 3 Zrotation Yrotation Xrotation
					End Site
					{
						OFFSET 0.000000 0.000000 0.000000
					}
				}
			}
		}
	}
	JOINT RightUpLeg
	{
		OFFSET -1.271939 0.000000 0.000000
		CHANNELS 3 Zrotation Yrotation Xrotation
		JOINT RightLowLeg
		{
			OFFSET 0.000000 -4.342910 0.000000
			CHANNELS 3 Zrotation Yrotation Xrotation
			JOINT RightFoot
			{
				OFFSET 0.000000 -4.487670 0.000000
				CHANNELS 3 Zrotation Yrotation Xrotation
				JOINT RightToeBase
				{
					OFFSET 0.000000 0.000000 1.515070
					CHANNELS 3 Zrotation Yrotation Xrotation
					End Site
					{
						OFFSET 0.000000 0.000000 0.000000
					}
				}
			}
		}
	}
}
MOTION
Frames: 7
Frame Time: 0.041667
-14.704698 9.014722 39.763820 -175.118169 -15.559995 -171.898952 8.142247 2.943477 -20.499158 -1.107329 2.584898 7.901381 0.000000 0.000000 0.000000 22.742887 -25.358548 2.268957 -6.242729 3.105306 -77.385475 -13.576000 -5.066070 2.984100 10.017500 -23.281601 -75.040009 0.000000 -18.957800 0.000000 11.432800 24.323500 -14.263400 26.099501 0.246402 -171.718994 -39.233700 -29.187401 -153.263977 0.000000 81.639801 0.000000 -5.915640 -11.866500 -12.711800 2.735135 -14.204156 -5.915611 0.000000 0.000000 8.275380 -0.581481 20.245946 -4.774724 0.000000 0.000000 -11.120440 6.033524 23.455848 -9.642878 0.000000 0.000000 4.356900 3.346808 -22.961605 7.561466 0.000000 0.000000 -17.782370 
-14.703055 9.012879 39.766979 -175.100926 -14.811676 -171.652658 8.078881 2.706822 -20.398870 -1.073599 2.432354 7.896520 0.000000 0.000000 0.000000 25.706239 -28.285656 0.283183 -5.572894 2.524389 -77.686790 -13.424500 -4.930570 2.896400 9.469240 -22.508900 -74.757996 0.000000 -18.615601 0.000000 12.930400 24.613400 -11.946700 26.680599 0.000878 -171.806000 -37.126499 -26.334700 -156.697998 0.000000 80.248497 0.000000 -5.276660 -12.583100 -18.154200 2.688180 -13.609904 -6.009860 0.000000 0.000000 8.208250 -0.628582 20.378938 -4.881720 0.000000 0.000000 -11.107390 5.882038 23.779501 -9.926469 0.000000 0.000000 4.315170 3.367520 -22.538844 7.663293 0.000000 0.000000 -17.788280 
-14.701846 9.011896 39.773774 -175.080014 -14.012615 -171.322535 8.049860 2.466133 -20.227352 -1.076050 2.235117 7.712593 0.000000 0.000000 0.000000 28.630007 -30.884081 -1.669221 -4.897766 2.014468 -78.092066 -13.335000 -4.642610 2.897930 8.893530 -21.843500 -74.562988 0.000000 -18.367701 0.000000 13.770900 24.775499 -11.849900 26.699100 -0.197526 -172.166000 -35.956402 -23.270000 -159.333008 0.000000 79.013901 0.000000 -6.772770 -13.500500 -21.023701 2.647512 -12.982153 -6.211547 0.000000 0.000000 8.157250 -0.677930 20.540007 -4.969334 0.000000 0.000000 -11.115630 5.663195 24.157427 -10.359640 0.000000 0.000000 4.335560 3.457330 -22.086656 7.749178 0.000000 0.000000 -17.757090 
-14.700276 9.010646 39.781785 -175.059138 -13.176263 -170.829190 7.952478 2.080751 -20.343707 -0.805763 2.035446 7.779999 0.000000 0.000000 0.000000 31.086304 -32.951422 -3.582172 -4.300638 1.557809 -78.431598 -13.403300 -4.432610 2.797000 8.325740 -20.950300 -73.987000 0.000000 -18.088600 0.000000 14.061100 24.809099 -12.459700 26.666201 -0.372243 -172.210007 -34.542198 -20.834801 -162.760986 0.000000 77.530403 0.000000 -7.078040 -13.043300 -22.314400 2.635432 -12.332422 -6.589474 0.000000 0.000000 8.124270 -0.722273 20.704691 -5.056975 0.000000 0.000000 -11.116160 5.358792 24.551514 -10.979883 0.000000 0.000000 4.344330 3.553977 -21.595898 7.855439 0.000000 0.000000 -17.745920 
-14.699659 9.009231 39.785028 -175.011439 -12.369031 -170.493179 8.031252 1.959190 -20.162498 -0.984494 1.839015 7.457063 0.000000 0.000000 0.000000 33.640431 -34.842038 -5.300302 -3.957608 1.225856 -78.856376 -13.338400 -4.478450 3.053680 7.873090 -19.961800 -72.977997 0.000000 -17.889799 0.000000 14.163800 25.023100 -13.104100 26.806900 -0.951571 -172.529007 -33.285999 -18.651699 -165.997986 0.000000 75.912102 0.000000 -7.663640 -12.465500 -19.913700 2.614512 -11.794663 -6.760095 0.000000 0.000000 8.038030 -0.814517 20.919793 -5.176147 0.000000 0.000000 -11.149330 5.150650 24.985319 -11.397095 0.000000 0.000000 4.335480 3.621821 -21.195719 7.954060 0.000000 0.000000 -17.710280 
-14.700885 9.009421 39.790083 -174.970214 -11.571794 -170.344553 8.046408 1.459246 -20.162222 -0.831027 1.452103 7.846165 0.000000 0.000000 0.000000 36.229054 -36.442300 -7.341322 -3.847732 1.189976 -79.294667 -13.489900 -4.169850 2.832520 7.311450 -19.040800 -71.855988 0.000000 -17.939501 0.000000 14.378000 25.234800 -13.056100 26.685499 -0.942075 -172.929993 -32.042301 -16.614599 -169.494995 0.000000 74.618103 0.000000 -6.689050 -12.845300 -19.868999 2.539755 -11.326588 -6.755120 0.000000 0.000000 7.958810 -0.859083 21.195888 -5.220662 0.000000 0.000000 -11.184420 5.023066 25.320884 -11.575374 0.000000 0.000000 4.249980 3.593794 -20.773729 8.159702 0.000000 0.000000 -17.709650 
-14.700780 9.007981 39.792837 -174.950052 -10.756062 -170.151103 8.162643 1.227227 -19.930966 -1.103678 1.130740 7.675624 0.000000 0.000000 0.000000 38.424054 -37.662696 -8.750279 -3.788450 1.163570 -79.647576 -13.491500 -3.931660 2.891430 6.649070 -18.330601 -70.718994 0.000000 -18.290300 0.000000 13.914200 25.171301 -14.438200 26.834900 -1.227380 -173.345001 -30.882700 -14.640700 -172.841980 0.000000 73.436897 0.000000 -7.785060 -12.899300 -20.764601 2.461169 -10.882459 -6.764207 0.000000 0.000000 7.860090 -0.980487 21.465347 -5.328984 0.000000 0.000000 -11.194890 4.897000 25.580658 -11.770360 0.000000 0.000000 4.156190 3.519327 -20.305469 8.320818 0.000000 0.000000 -17.676690 
